<?xml version="1.0" encoding="UTF-8" standalone="no"?><!DOCTYPE svg PUBLIC "-//W3C//DTD SVG 1.1//EN" "http://www.w3.org/Graphics/SVG/1.1/DTD/svg11.dtd"><svg width="100%" height="100%" viewBox="0 0 4342 4342" version="1.1" xmlns="http://www.w3.org/2000/svg" xmlns:xlink="http://www.w3.org/1999/xlink" xml:space="preserve" xmlns:serif="http://www.serif.com/" style="fill-rule:evenodd;clip-rule:evenodd;stroke-linecap:round;stroke-linejoin:round;stroke-miterlimit:1.5;"><rect id="Bridging-Materials-and-Data" serif:id="Bridging Materials and Data" x="0" y="0" width="4340.42" height="4340.42" style="fill:none;"/><path d="M1405.58,2848.83l0,-1368.46c0,-19.696 7.825,-38.587 21.75,-52.512c13.93,-13.93 32.817,-21.755 52.517,-21.755l1241.75,0" style="fill:none;stroke:#55b8dc;stroke-width:78.13px;"/><path d="M2938.62,2177l-616.75,0c-13.4,0 -25.713,7.379 -32.029,19.2c-6.317,11.817 -5.613,26.154 1.833,37.296c4.909,7.342 8.271,12.371 8.271,12.371c12.546,22.358 19.7,48.146 19.7,75.587c0,85.446 -69.371,154.817 -154.813,154.817c-85.445,-0 -154.816,-69.371 -154.816,-154.817c-0,-27.666 7.275,-53.65 20.012,-76.137m-624.416,-68.317l604.458,0c12.625,0 24.254,6.854 30.375,17.896c6.121,11.042 5.767,24.533 -0.925,35.242c-5.517,8.829 -9.487,15.179 -9.487,15.179" style="fill:none;stroke:#55b8dc;stroke-width:78.13px;"/><path d="M1621.71,2939.17l1226.92,-0c49.704,-0 89.996,-40.292 89.996,-89.996l-0,-1353.38" style="fill:none;stroke:#55b8dc;stroke-width:78.13px;"/><path d="M2923.58,883.917c-48.208,53.77 -124.225,124.225 -122.37,222.487c1.854,98.267 22.249,177.508 22.249,177.508l-238.254,286.009c0,-0 -47.558,83.433 23.042,139.054c70.596,55.621 126.217,11.125 126.217,11.125l376.375,-413.458" style="fill:none;stroke:#55b8dc;stroke-width:78.13px;"/><path d="M2430.67,1406.12c-0,-210.029 3.625,-213.65 3.625,-315.046c-0,-101.391 156.871,-319.533 351.546,-319.533" style="fill:none;stroke:#55b8dc;stroke-width:78.13px;"/><path d="M3245.71,641.25l0,796.667c0,-0 5.655,78.358 -17.383,132.125c-21.525,50.241 -289.696,315.771 -289.696,315.771" style="fill:none;stroke:#55b8dc;stroke-width:78.13px;"/><path d="M2585.21,641.25l0,199.892" style="fill:none;stroke:#55b8dc;stroke-width:78.13px;"/><path d="M1416.71,3465.08c48.205,-53.766 124.221,-124.22 122.367,-222.483c-1.854,-98.267 -22.246,-177.508 -22.246,-177.508l238.254,-286.009c0,0 47.554,-83.433 -23.041,-139.054c-70.596,-55.621 -126.221,-11.125 -126.221,-11.125l-376.375,413.454" style="fill:none;stroke:#55b8dc;stroke-width:78.13px;"/><path d="M1909.62,2942.83c0,210.03 -3.621,213.65 -3.621,315.042c0,101.396 -156.871,319.537 -351.546,319.537" style="fill:none;stroke:#55b8dc;stroke-width:78.13px;"/><path d="M1094.58,3707.75l0,-796.667c0,0 -5.654,-78.358 17.384,-132.125c21.525,-50.241 289.696,-315.77 289.696,-315.77" style="fill:none;stroke:#55b8dc;stroke-width:78.13px;"/><path d="M1755.08,3707.75l0,-199.892" style="fill:none;stroke:#55b8dc;stroke-width:78.13px;"/></svg>