<?xml version="1.0" encoding="UTF-8" standalone="no"?><!DOCTYPE svg PUBLIC "-//W3C//DTD SVG 1.1//EN" "http://www.w3.org/Graphics/SVG/1.1/DTD/svg11.dtd"><svg width="100%" height="100%" viewBox="0 0 1042 1042" version="1.1" xmlns="http://www.w3.org/2000/svg" xmlns:xlink="http://www.w3.org/1999/xlink" xml:space="preserve" xmlns:serif="http://www.serif.com/" style="fill-rule:evenodd;clip-rule:evenodd;stroke-linecap:round;stroke-linejoin:round;stroke-miterlimit:1.5;"><rect id="Bridging-Materials-and-Data" serif:id="Bridging Materials and Data" x="0" y="0" width="1041.67" height="1041.67" style="fill:none;"/><path d="M337.344,683.72l-0,-328.427c-0,-4.727 1.878,-9.261 5.22,-12.603c3.343,-3.343 7.876,-5.221 12.604,-5.221l298.025,0" style="fill:none;stroke:#61bae0;stroke-width:18.75px;"/><path d="M705.27,522.475l-148.02,0c-3.216,0 -6.171,1.771 -7.687,4.608c-1.516,2.836 -1.347,6.277 0.44,8.951c1.178,1.762 1.985,2.969 1.985,2.969m-0,-0c3.011,5.366 4.728,11.555 4.728,18.141c0,20.507 -16.649,37.156 -37.155,37.156c-20.507,-0 -37.156,-16.649 -37.156,-37.156c0,-6.64 1.746,-12.876 4.803,-18.273m-149.864,-16.396l145.073,0c3.03,0 5.821,1.645 7.29,4.295c1.469,2.65 1.384,5.888 -0.222,8.458c-1.324,2.119 -2.277,3.643 -2.277,3.643" style="fill:none;stroke:#61bae0;stroke-width:18.75px;"/><path d="M389.207,705.404l294.464,0c11.929,0 21.599,-9.67 21.599,-21.599l-0,-324.811" style="fill:none;stroke:#61bae0;stroke-width:18.75px;"/><path d="M701.657,212.138c-11.57,12.905 -29.814,29.814 -29.369,53.397c0.445,23.584 5.34,42.602 5.34,42.602l-57.181,68.642c-0,-0 -11.414,20.024 5.53,33.373c16.943,13.349 30.292,2.67 30.292,2.67l90.33,-99.23" style="fill:none;stroke:#61bae0;stroke-width:18.75px;"/><path d="M583.356,337.469c0,-50.407 0.87,-51.276 0.87,-75.611c-0,-24.334 37.649,-76.688 84.371,-76.688" style="fill:none;stroke:#61bae0;stroke-width:18.75px;"/><path d="M778.969,153.895l-0,191.2c-0,-0 1.357,18.806 -4.172,31.71c-5.166,12.058 -69.527,75.785 -69.527,75.785" style="fill:none;stroke:#61bae0;stroke-width:18.75px;"/><path d="M620.447,153.895l-0,47.974" style="fill:none;stroke:#61bae0;stroke-width:18.75px;"/><path d="M340.01,831.615c11.569,-12.904 29.813,-29.813 29.368,-53.396c-0.445,-23.584 -5.339,-42.602 -5.339,-42.602l57.181,-68.642c0,-0 11.413,-20.024 -5.53,-33.373c-16.943,-13.349 -30.293,-2.67 -30.293,-2.67l-90.33,99.229" style="fill:none;stroke:#61bae0;stroke-width:18.75px;"/><path d="M458.31,706.285c0,50.407 -0.869,51.276 -0.869,75.61c0,24.335 -37.649,76.689 -84.371,76.689" style="fill:none;stroke:#61bae0;stroke-width:18.75px;"/><path d="M262.698,889.859l-0,-191.2c-0,-0 -1.357,-18.806 4.172,-31.71c5.166,-12.058 69.527,-75.785 69.527,-75.785" style="fill:none;stroke:#61bae0;stroke-width:18.75px;"/><path d="M421.22,889.859l0,-47.974" style="fill:none;stroke:#61bae0;stroke-width:18.75px;"/></svg>