<?xml version="1.0" encoding="UTF-8"?>
<!DOCTYPE svg  PUBLIC '-//W3C//DTD SVG 1.1//EN'  'http://www.w3.org/Graphics/SVG/1.1/DTD/svg11.dtd'>
<svg clip-rule="evenodd" fill-rule="evenodd" stroke-linecap="round" stroke-linejoin="round" stroke-miterlimit="1.5" version="1.1" viewBox="0 0 1042 1042" xml:space="preserve" xmlns="http://www.w3.org/2000/svg" xmlns:serif="http://www.serif.com/"><rect width="1041.7" height="1041.7" fill="none" serif:id="Bridging Materials and Data"/><path d="m337.34 683.72v-328.43c0-4.727 1.878-9.261 5.22-12.603 3.343-3.343 7.876-5.221 12.604-5.221h298.02" fill="none" stroke="#61bae0" stroke-width="18.75px"/><path d="m705.27 522.48h-148.02c-3.216 0-6.171 1.771-7.687 4.608-1.516 2.836-1.347 6.277 0.44 8.951 1.178 1.762 1.985 2.969 1.985 2.969 3.011 5.366 4.728 11.555 4.728 18.141 0 20.507-16.649 37.156-37.155 37.156-20.507 0-37.156-16.649-37.156-37.156 0-6.64 1.746-12.876 4.803-18.273m-149.86-16.396h145.07c3.03 0 5.821 1.645 7.29 4.295s1.384 5.888-0.222 8.458c-1.324 2.119-2.277 3.643-2.277 3.643" fill="none" stroke="#61bae0" stroke-width="18.75px"/><path d="m389.21 705.4h294.46c11.929 0 21.599-9.67 21.599-21.599v-324.81" fill="none" stroke="#61bae0" stroke-width="18.75px"/><path d="m701.66 212.14c-11.57 12.905-29.814 29.814-29.369 53.397 0.445 23.584 5.34 42.602 5.34 42.602l-57.181 68.642s-11.414 20.024 5.53 33.373c16.943 13.349 30.292 2.67 30.292 2.67l90.33-99.23" fill="none" stroke="#61bae0" stroke-width="18.75px"/><path d="m583.36 337.47c0-50.407 0.87-51.276 0.87-75.611 0-24.334 37.649-76.688 84.371-76.688" fill="none" stroke="#61bae0" stroke-width="18.75px"/><path d="m778.97 153.9v191.2s1.357 18.806-4.172 31.71c-5.166 12.058-69.527 75.785-69.527 75.785" fill="none" stroke="#61bae0" stroke-width="18.75px"/><path d="m620.45 153.9v47.974" fill="none" stroke="#61bae0" stroke-width="18.75px"/><path d="m340.01 831.62c11.569-12.904 29.813-29.813 29.368-53.396-0.445-23.584-5.339-42.602-5.339-42.602l57.181-68.642s11.413-20.024-5.53-33.373-30.293-2.67-30.293-2.67l-90.33 99.229" fill="none" stroke="#61bae0" stroke-width="18.75px"/><path d="m458.31 706.28c0 50.407-0.869 51.276-0.869 75.61 0 24.335-37.649 76.689-84.371 76.689" fill="none" stroke="#61bae0" stroke-width="18.75px"/><path d="m262.7 889.86v-191.2s-1.357-18.806 4.172-31.71c5.166-12.058 69.527-75.785 69.527-75.785" fill="none" stroke="#61bae0" stroke-width="18.75px"/><path d="m421.22 889.86v-47.974" fill="none" stroke="#61bae0" stroke-width="18.75px"/></svg>
