<?xml version="1.0" encoding="UTF-8" standalone="no"?><!DOCTYPE svg PUBLIC "-//W3C//DTD SVG 1.1//EN" "http://www.w3.org/Graphics/SVG/1.1/DTD/svg11.dtd"><svg width="100%" height="100%" viewBox="0 0 4342 4342" version="1.1" xmlns="http://www.w3.org/2000/svg" xmlns:xlink="http://www.w3.org/1999/xlink" xml:space="preserve" xmlns:serif="http://www.serif.com/" style="fill-rule:evenodd;clip-rule:evenodd;stroke-linecap:round;stroke-linejoin:round;stroke-miterlimit:2;"><rect id="Design-and-Deliver" serif:id="Design and Deliver" x="0" y="0" width="4340.29" height="4340.29" style="fill:none;"/><path d="M1735.8,3162.26c21.317,-21.262 34.833,-45.975 103.008,-45.975l819.029,0c61.834,0 402,-341.058 445.246,-389.587c41.575,-46.583 226.909,-325.029 278.279,-445.246c-32.283,-43.412 -119.495,-79.588 -222.625,-55.654c-98.4,22.875 -156.279,93.554 -222.62,222.621l-222.621,121.45" style="fill:none;stroke:#0095cb;stroke-width:78.13px;"/><path d="M2045.62,2782.35l500.9,0c222.625,0 222.625,-278.279 -0,-278.279l-333.934,-0c-46.358,-0 -133.35,-111.309 -206.816,-111.309l-278.275,0.001c-75.246,-0.001 -168.638,61.054 -222.625,111.308c-83.425,83.429 -215.309,207.408 -215.309,207.408" style="fill:none;stroke:#0095cb;stroke-width:78.13px;"/><path d="M1560.53,3450.22l222.621,-222.621l-612.213,-612.213l-222.62,222.625l612.212,612.209Z" style="fill:none;stroke:#0095cb;stroke-width:78.13px;"/><path d="M2490.87,890.058l-0,333.934c29.608,-26.659 68.345,-55.654 111.312,-55.654c92.221,-0 166.967,74.8 166.967,166.966c-0,92.221 -74.746,166.967 -166.967,166.967c-42.966,-0 -81.704,-28.996 -111.312,-55.654l-0,278.279" style="fill:none;stroke:#0095cb;stroke-width:78.13px;"/><path d="M3325.7,1724.9l-333.933,-0c26.662,29.608 55.658,68.342 55.658,111.308c0,92.225 -74.746,166.967 -166.967,166.967c-92.225,-0 -166.966,-74.742 -166.966,-166.967c-0,-42.966 28.995,-81.7 55.654,-111.308l-278.279,-0" style="fill:none;stroke:#0095cb;stroke-width:78.13px;"/><path d="M2490.87,1724.9l-0,278.275c-29.609,-26.659 -68.346,-55.654 -111.313,-55.654c-92.221,-0 -166.967,74.8 -166.967,166.966c0.001,92.221 74.746,166.967 166.967,166.967c42.967,0 81.704,-28.996 111.313,-55.654l-0,278.275" style="fill:none;stroke:#0095cb;stroke-width:78.13px;"/><path d="M1656.03,1724.9l333.934,-0c-26.659,-29.554 -55.654,-68.346 -55.654,-111.313c-0,-92.166 74.745,-166.966 166.966,-166.966c92.221,-0 166.967,74.8 166.967,166.966c-0,42.967 -28.996,81.759 -55.658,111.313l278.279,-0" style="fill:none;stroke:#0095cb;stroke-width:78.13px;"/><path d="M1868.47,2281.34c-132.129,-147.655 -212.438,-342.671 -212.438,-556.442c0,-461.054 373.784,-834.838 834.834,-834.838c461.05,0 834.833,373.784 834.833,834.838c0,140.75 -34.783,273.325 -96.283,389.587" style="fill:none;stroke:#0095cb;stroke-width:78.13px;"/></svg>