<?xml version="1.0" encoding="UTF-8" standalone="no"?><!DOCTYPE svg PUBLIC "-//W3C//DTD SVG 1.1//EN" "http://www.w3.org/Graphics/SVG/1.1/DTD/svg11.dtd"><svg width="100%" height="100%" viewBox="0 0 1042 1042" version="1.1" xmlns="http://www.w3.org/2000/svg" xmlns:xlink="http://www.w3.org/1999/xlink" xml:space="preserve" xmlns:serif="http://www.serif.com/" style="fill-rule:evenodd;clip-rule:evenodd;stroke-linecap:round;stroke-linejoin:round;stroke-miterlimit:2;"><rect id="Design-and-Deliver" serif:id="Design and Deliver" x="0" y="0" width="1041.67" height="1041.67" style="fill:none;"/><path d="M416.591,758.942c5.116,-5.103 8.36,-11.034 24.722,-11.034l196.567,0c14.84,0 96.48,-81.854 106.859,-93.501c9.978,-11.18 54.458,-78.007 66.787,-106.859c-7.748,-10.419 -28.679,-19.101 -53.43,-13.357c-23.616,5.49 -37.507,22.453 -53.429,53.429l-53.429,29.148" style="fill:none;stroke:#358bb0;stroke-width:18.75px;"/><path d="M490.949,667.764l120.216,0c53.43,0 53.43,-66.787 0,-66.787l-80.144,0c-11.126,0 -32.004,-26.714 -49.636,-26.714l-66.786,-0c-18.059,-0 -40.473,14.653 -53.43,26.714c-20.022,20.023 -51.674,49.778 -51.674,49.778" style="fill:none;stroke:#358bb0;stroke-width:18.75px;"/><path d="M374.527,828.052l53.429,-53.429l-146.931,-146.931l-53.429,53.43l146.931,146.93Z" style="fill:none;stroke:#358bb0;stroke-width:18.75px;"/><path d="M597.808,213.614l0,80.144c7.106,-6.398 16.403,-13.357 26.715,-13.357c22.133,-0 40.072,17.952 40.072,40.072c-0,22.133 -17.939,40.072 -40.072,40.072c-10.312,0 -19.609,-6.959 -26.715,-13.357l0,66.787" style="fill:none;stroke:#358bb0;stroke-width:18.75px;"/><path d="M798.168,413.975l-80.144,-0c6.399,7.106 13.358,16.402 13.358,26.714c-0,22.134 -17.939,40.072 -40.072,40.072c-22.134,0 -40.072,-17.938 -40.072,-40.072c-0,-10.312 6.959,-19.608 13.357,-26.714l-66.787,-0" style="fill:none;stroke:#358bb0;stroke-width:18.75px;"/><path d="M597.808,413.975l0,66.786c-7.106,-6.398 -16.403,-13.357 -26.715,-13.357c-22.133,-0 -40.072,17.952 -40.072,40.072c0,22.133 17.939,40.072 40.072,40.072c10.312,0 19.609,-6.959 26.715,-13.357l0,66.786" style="fill:none;stroke:#358bb0;stroke-width:18.75px;"/><path d="M397.448,413.975l80.144,-0c-6.398,-7.093 -13.357,-16.403 -13.357,-26.715c-0,-22.12 17.939,-40.072 40.072,-40.072c22.133,-0 40.072,17.952 40.072,40.072c-0,10.312 -6.959,19.622 -13.358,26.715l66.787,-0" style="fill:none;stroke:#358bb0;stroke-width:18.75px;"/><path d="M448.433,547.521c-31.711,-35.437 -50.985,-82.241 -50.985,-133.546c-0,-110.653 89.708,-200.361 200.36,-200.361c110.652,0 200.36,89.708 200.36,200.361c0,33.78 -8.348,65.598 -23.108,93.501" style="fill:none;stroke:#358bb0;stroke-width:18.75px;"/></svg>