<?xml version="1.0" encoding="UTF-8" standalone="no"?><!DOCTYPE svg PUBLIC "-//W3C//DTD SVG 1.1//EN" "http://www.w3.org/Graphics/SVG/1.1/DTD/svg11.dtd"><svg width="100%" height="100%" viewBox="0 0 1042 1042" version="1.1" xmlns="http://www.w3.org/2000/svg" xmlns:xlink="http://www.w3.org/1999/xlink" xml:space="preserve" xmlns:serif="http://www.serif.com/" style="fill-rule:evenodd;clip-rule:evenodd;stroke-linecap:round;stroke-linejoin:round;stroke-miterlimit:1.5;"><rect id="End-of-Design-Life" serif:id="End of Design Life" x="0" y="0" width="1041.67" height="1041.67" style="fill:none;"/><path d="M188.245,153.895l0,121.823m0,32.233l0,121.824m28.717,-170.87c18.175,0 32.93,14.755 32.93,32.93c-0,18.174 -14.755,32.929 -32.93,32.929c-12.321,0 -23.071,-6.782 -28.717,-16.813m0,-32.233c5.646,-10.031 16.396,-16.813 28.717,-16.813m247.163,-105.745l-275.88,0m275.88,276.615l-0,-121.824m-0,-32.233l-0,-121.823m-28.717,170.869c-18.174,0 -32.93,-14.755 -32.93,-32.929c0,-18.175 14.756,-32.93 32.93,-32.93c12.321,0 23.071,6.782 28.717,16.813m-0,32.233c-5.646,10.031 -16.396,16.813 -28.717,16.813m28.717,105.011l-121.824,-0m-32.232,-0l-121.824,-0m170.869,28.717c0,18.174 -14.755,32.929 -32.929,32.929c-18.174,0 -32.929,-14.755 -32.929,-32.929c-0,-12.322 6.781,-23.072 16.813,-28.717m32.232,-0c10.032,5.645 16.813,16.395 16.813,28.717" style="fill:none;stroke:#90b47d;stroke-width:18.75px;"/><path d="M188.98,705.654l121.823,0m32.233,0l121.824,0m-170.87,-28.717c0,-18.174 14.756,-32.929 32.93,-32.929c18.174,-0 32.929,14.755 32.929,32.929c0,12.321 -6.781,23.071 -16.813,28.717m-32.233,0c-10.031,-5.646 -16.813,-16.396 -16.813,-28.717m-105.745,-247.162l0,275.879m276.615,-275.879l-121.824,-0m-32.233,-0l-121.823,-0m170.869,28.717c0,18.174 -14.755,32.929 -32.929,32.929c-18.174,0 -32.93,-14.755 -32.93,-32.929c0,-12.322 6.782,-23.072 16.813,-28.717m32.233,-0c10.032,5.645 16.813,16.395 16.813,28.717m105.011,-28.717l-0,121.823m-0,32.233l-0,121.823m28.717,-170.869c18.174,-0 32.929,14.755 32.929,32.929c0,18.175 -14.755,32.93 -32.929,32.93c-12.321,-0 -23.071,-6.782 -28.717,-16.813m-0,-32.233c5.646,-10.031 16.396,-16.813 28.717,-16.813" style="fill:none;stroke:#90b47d;stroke-width:18.75px;"/><path d="M740.005,153.16l-121.824,0m-32.233,0l-121.823,0m170.869,28.717c0,18.174 -14.755,32.93 -32.929,32.93c-18.175,-0 -32.93,-14.756 -32.93,-32.93c0,-12.321 6.782,-23.071 16.813,-28.717m32.233,0c10.031,5.646 16.813,16.396 16.813,28.717m105.745,244.712l0,-273.429m-276.614,275.88l121.823,-0m32.233,-0l121.824,-0m-170.87,-28.717c0,-18.175 14.755,-32.93 32.93,-32.93c18.174,0 32.929,14.755 32.929,32.93c0,12.321 -6.782,23.071 -16.813,28.717m-32.233,-0c-10.031,-5.646 -16.813,-16.396 -16.813,-28.717m-105.01,28.717l-0,-121.824m-0,-32.233l-0,-121.823m-28.717,170.869c-18.174,0 -32.93,-14.755 -32.93,-32.929c0,-18.174 14.756,-32.93 32.93,-32.93c12.321,0 23.071,6.782 28.717,16.813m-0,32.233c-5.646,10.032 -16.396,16.813 -28.717,16.813" style="fill:none;stroke:#90b47d;stroke-width:18.75px;"/><path d="M853.421,828.212l0,-121.823m0,-32.233l0,-121.823m-28.717,170.869c-18.174,-0 -32.929,-14.755 -32.929,-32.929c-0,-18.175 14.755,-32.93 32.929,-32.93c12.322,0 23.071,6.782 28.717,16.813m0,32.233c-5.646,10.031 -16.395,16.813 -28.717,16.813m28.717,105.01l-121.823,0m-32.233,0l-121.823,0m170.869,28.717c0,18.175 -14.755,32.93 -32.929,32.93c-18.175,-0 -32.93,-14.755 -32.93,-32.93c0,-12.321 6.782,-23.071 16.813,-28.717m32.233,0c10.031,5.646 16.813,16.396 16.813,28.717m-170.869,-304.596l-0,121.823m-0,32.233l-0,121.823m28.717,-170.869c18.174,0 32.929,14.755 32.929,32.93c0,18.174 -14.755,32.929 -32.929,32.929c-12.321,-0 -23.071,-6.782 -28.717,-16.813m-0,-32.233c5.646,-10.031 16.396,-16.813 28.717,-16.813m-28.717,-105.01l121.823,-0m32.233,-0l121.823,-0m-170.869,-28.717c0,-18.175 14.755,-32.93 32.93,-32.93c18.174,0 32.929,14.755 32.929,32.93c0,12.321 -6.782,23.071 -16.813,28.717m-32.233,-0c-10.031,-5.646 -16.813,-16.396 -16.813,-28.717" style="fill:none;stroke:#90b47d;stroke-width:18.75px;"/></svg>