<?xml version="1.0" encoding="UTF-8" standalone="no"?><!DOCTYPE svg PUBLIC "-//W3C//DTD SVG 1.1//EN" "http://www.w3.org/Graphics/SVG/1.1/DTD/svg11.dtd"><svg width="100%" height="100%" viewBox="0 0 4342 4342" version="1.1" xmlns="http://www.w3.org/2000/svg" xmlns:xlink="http://www.w3.org/1999/xlink" xml:space="preserve" xmlns:serif="http://www.serif.com/" style="fill-rule:evenodd;clip-rule:evenodd;stroke-linecap:round;stroke-linejoin:round;stroke-miterlimit:1.5;"><rect id="End-of-Design-Life" serif:id="End of Design Life" x="0" y="0" width="4340.29" height="4340.29" style="fill:none;"/><path d="M784.354,641.229l0,507.596m0,134.304l0,507.6m119.654,-711.958c75.73,-0 137.209,61.479 137.209,137.208c-0,75.725 -61.48,137.204 -137.209,137.204c-51.337,0 -96.129,-28.258 -119.654,-70.054m0,-134.304c23.525,-41.796 68.317,-70.054 119.654,-70.054m1029.85,-440.604l-1149.5,-0m1149.5,1152.56l0,-507.6m0,-134.304l0,-507.596m-119.654,711.954c-75.725,0 -137.208,-61.479 -137.208,-137.204c-0,-75.729 61.483,-137.208 137.208,-137.208c51.338,-0 96.129,28.258 119.654,70.054m0,134.304c-23.525,41.796 -68.316,70.054 -119.654,70.054m119.654,437.546l-507.6,0m-134.3,0l-507.6,0m711.954,119.654c0,75.725 -61.479,137.204 -137.204,137.204c-75.725,0 -137.204,-61.479 -137.204,-137.204c-0,-51.341 28.254,-96.133 70.054,-119.654m134.3,0c41.8,23.521 70.054,68.313 70.054,119.654" style="fill:none;stroke:#035c67;stroke-width:78.13px;"/><path d="M787.417,2940.22l507.596,0m134.304,0l507.6,0m-711.959,-119.654c0,-75.725 61.484,-137.204 137.209,-137.204c75.725,-0 137.204,61.479 137.204,137.204c-0,51.337 -28.254,96.129 -70.054,119.654m-134.304,0c-41.796,-23.525 -70.055,-68.317 -70.055,-119.654m-440.604,-1029.84l0,1149.5m1152.56,-1149.5l-507.6,0m-134.304,0l-507.596,0m711.954,119.654c-0,75.725 -61.479,137.205 -137.204,137.205c-75.725,-0 -137.209,-61.48 -137.209,-137.205c0,-51.341 28.259,-96.133 70.055,-119.654m134.304,0c41.8,23.521 70.054,68.313 70.054,119.654m437.546,-119.654l-0,507.596m-0,134.304l-0,507.596m119.654,-711.954c75.725,-0 137.204,61.479 137.204,137.204c0,75.729 -61.479,137.208 -137.204,137.208c-51.338,0 -96.129,-28.258 -119.654,-70.054m-0,-134.304c23.525,-41.796 68.316,-70.054 119.654,-70.054" style="fill:none;stroke:#035c67;stroke-width:78.13px;"/><path d="M3083.35,638.167l-507.6,-0m-134.304,-0l-507.596,-0m711.954,119.654c0,75.725 -61.479,137.208 -137.204,137.208c-75.729,0 -137.208,-61.483 -137.208,-137.208c-0,-51.338 28.258,-96.129 70.054,-119.654m134.304,-0c41.796,23.525 70.054,68.316 70.054,119.654m440.605,1019.63l-0,-1139.29m-1152.56,1149.5l507.596,-0m134.304,-0l507.6,-0m-711.958,-119.654c-0,-75.73 61.479,-137.209 137.208,-137.209c75.725,0 137.204,61.479 137.204,137.209c0,51.337 -28.258,96.129 -70.054,119.654m-134.304,-0c-41.796,-23.525 -70.054,-68.317 -70.054,-119.654m-437.542,119.654l0,-507.6m0,-134.304l0,-507.596m-119.654,711.954c-75.725,-0 -137.208,-61.479 -137.208,-137.204c-0,-75.725 61.483,-137.209 137.208,-137.209c51.338,0 96.129,28.259 119.654,70.054m0,134.305c-23.525,41.8 -68.317,70.054 -119.654,70.054" style="fill:none;stroke:#035c67;stroke-width:78.13px;"/><path d="M3555.92,3450.88l-0,-507.595m-0,-134.305l-0,-507.595m-119.654,711.954c-75.725,-0 -137.204,-61.48 -137.204,-137.205c-0,-75.729 61.479,-137.208 137.204,-137.208c51.341,0 96.129,28.259 119.654,70.054m-0,134.304c-23.525,41.796 -68.313,70.055 -119.654,70.055m119.654,437.541l-507.596,0m-134.304,0l-507.596,0m711.954,119.654c0,75.73 -61.479,137.209 -137.204,137.209c-75.729,-0 -137.208,-61.479 -137.208,-137.209c-0,-51.337 28.258,-96.129 70.054,-119.654m134.304,0c41.796,23.525 70.054,68.317 70.054,119.654m-711.954,-1269.15l0,507.596m0,134.304l0,507.596m119.654,-711.954c75.725,0 137.204,61.479 137.204,137.208c0,75.725 -61.479,137.205 -137.204,137.205c-51.337,-0 -96.129,-28.259 -119.654,-70.055m0,-134.304c23.525,-41.796 68.317,-70.054 119.654,-70.054m-119.654,-437.542l507.596,0m134.304,0l507.596,0m-711.954,-119.654c-0,-75.729 61.479,-137.208 137.208,-137.208c75.725,-0 137.204,61.479 137.204,137.208c0,51.338 -28.258,96.129 -70.054,119.654m-134.304,0c-41.796,-23.525 -70.054,-68.316 -70.054,-119.654" style="fill:none;stroke:#035c67;stroke-width:78.13px;"/></svg>