<?xml version="1.0" encoding="UTF-8" standalone="no"?><!DOCTYPE svg PUBLIC "-//W3C//DTD SVG 1.1//EN" "http://www.w3.org/Graphics/SVG/1.1/DTD/svg11.dtd"><svg width="100%" height="100%" viewBox="0 0 4342 4342" version="1.1" xmlns="http://www.w3.org/2000/svg" xmlns:xlink="http://www.w3.org/1999/xlink" xml:space="preserve" xmlns:serif="http://www.serif.com/" style="fill-rule:evenodd;clip-rule:evenodd;stroke-linejoin:round;stroke-miterlimit:2;"><rect id="Intelligent-Built-Environment" serif:id="Intelligent Built Environment" x="0" y="0" width="4340.29" height="4340.29" style="fill:none;"/><path d="M2135.88,3219.22l-548.079,0c-18.946,0 -34.254,-15.312 -34.254,-34.254l-0,-1507.22c-0,-11.237 5.512,-21.754 14.762,-28.158c9.18,-6.404 20.963,-7.913 31.55,-3.938l548.08,205.529c13.325,5.034 22.195,17.813 22.195,32.096l0,376.804l-68.508,0l0,-353.066l-479.571,-179.838l0,1423.54l513.825,-0l0,68.508Z" style="fill:#57929a;fill-rule:nonzero;"/><path d="M1313.76,3150.72l239.787,-0l0,-735.15l-239.787,106.533l-0,628.617Zm274.041,68.508l-308.296,0c-18.941,0 -34.254,-15.312 -34.254,-34.254l0,-685.1c0,-13.567 7.946,-25.796 20.346,-31.308l308.296,-137.021c10.583,-4.696 22.846,-3.7 32.575,2.566c9.729,6.338 15.587,17.13 15.587,28.742l0,822.121c0,18.942 -15.312,34.254 -34.254,34.254Z" style="fill:#57929a;fill-rule:nonzero;"/><path d="M1998.86,3150.72l342.549,-0l0,-787.867l-342.55,0l0,787.867Zm376.809,68.508l-411.063,0c-18.941,0 -34.254,-15.313 -34.254,-34.254l0,-856.375c0,-18.946 15.313,-34.254 34.254,-34.254l411.063,-0c18.941,-0 34.254,15.308 34.254,34.254l0,856.375c0,18.941 -15.313,34.254 -34.254,34.254Z" style="fill:#57929a;fill-rule:nonzero;"/><path d="M2786.73,2431.36l-68.508,0l-0,-376.804l-376.809,0l0.001,274.042l-68.509,-0l0,-308.296c0,-18.942 15.313,-34.254 34.254,-34.254l445.317,-0c18.942,-0 34.254,15.312 34.254,34.254l0,411.058Z" style="fill:#57929a;fill-rule:nonzero;"/><rect x="2307.16" y="3150.72" width="445.317" height="68.508" style="fill:#57929a;"/><rect x="1416.53" y="2602.63" width="171.275" height="68.508" style="fill:#57929a;"/><rect x="1416.53" y="2808.17" width="171.275" height="68.508" style="fill:#57929a;"/><rect x="2101.63" y="2499.87" width="137.021" height="68.508" style="fill:#57929a;"/><rect x="2101.63" y="2671.15" width="137.021" height="68.508" style="fill:#57929a;"/><rect x="2101.63" y="2842.42" width="137.021" height="68.508" style="fill:#57929a;"/><path d="M2409.93,3150.72l650.846,-0l-0,-582.338l-650.846,0l0,582.338Zm685.1,68.508l-719.354,0c-18.946,0 -34.259,-15.312 -34.259,-34.254l0,-650.846c0,-18.942 15.313,-34.254 34.259,-34.254l719.354,-0c18.942,-0 34.254,15.312 34.254,34.254l0,650.846c0,18.942 -15.312,34.254 -34.254,34.254Z" style="fill:#57929a;fill-rule:nonzero;"/><rect x="2512.69" y="2671.15" width="137.021" height="68.508" style="fill:#57929a;"/><rect x="2512.69" y="2842.42" width="137.021" height="68.508" style="fill:#57929a;"/><rect x="2820.98" y="2671.15" width="137.021" height="68.508" style="fill:#57929a;"/><rect x="2820.98" y="2842.42" width="137.021" height="68.508" style="fill:#57929a;"/><path d="M2170.14,855.629c-56.655,0 -102.763,46.109 -102.763,102.763c0,56.658 46.108,102.766 102.762,102.766c56.659,0 102.767,-46.108 102.767,-102.766c0,-56.655 -46.108,-102.763 -102.767,-102.763Zm0,274.038c-94.437,-0 -171.275,-76.834 -171.275,-171.275c0,-94.438 76.838,-171.275 171.275,-171.275c94.442,-0 171.275,76.837 171.275,171.275c0,94.441 -76.833,171.275 -171.275,171.275Z" style="fill:#57929a;fill-rule:nonzero;"/><rect x="2135.88" y="1095.41" width="68.508" height="445.317" style="fill:#57929a;"/><path d="M3266.3,1986.05c-56.658,-0 -102.767,46.104 -102.767,102.762c0,56.659 46.109,102.767 102.767,102.767c56.658,0 102.767,-46.108 102.767,-102.767c-0,-56.658 -46.109,-102.762 -102.767,-102.762Zm0,274.037c-94.442,0 -171.275,-76.833 -171.275,-171.275c0,-94.441 76.833,-171.275 171.275,-171.275c94.442,0 171.275,76.834 171.275,171.275c0,94.442 -76.833,171.275 -171.275,171.275Z" style="fill:#57929a;fill-rule:nonzero;"/><rect x="2923.75" y="2054.55" width="205.529" height="68.508" style="fill:#57929a;"/><path d="M1073.98,1986.05c-56.658,-0 -102.766,46.104 -102.766,102.762c-0,56.659 46.108,102.767 102.766,102.767c56.659,0 102.763,-46.108 102.763,-102.767c-0,-56.658 -46.104,-102.762 -102.763,-102.762Zm0,274.037c-94.442,0 -171.275,-76.833 -171.275,-171.275c0,-94.441 76.833,-171.275 171.275,-171.275c94.438,0 171.275,76.834 171.275,171.275c0,94.442 -76.837,171.275 -171.275,171.275Z" style="fill:#57929a;fill-rule:nonzero;"/><rect x="1211" y="2054.55" width="205.529" height="68.508" style="fill:#57929a;"/><path d="M1211,1026.9c-27.475,0 -53.267,10.721 -72.658,30.109c-19.388,19.391 -30.109,45.183 -30.109,72.654c0,27.475 10.721,53.266 30.109,72.658c38.812,38.808 106.5,38.808 145.312,0c19.421,-19.392 30.109,-45.183 30.109,-72.658c-0,-27.471 -10.688,-53.263 -30.109,-72.654c-19.391,-19.388 -45.183,-30.109 -72.654,-30.109Zm0,274.042c-45.767,-0 -88.758,-17.85 -121.092,-50.188c-32.337,-32.333 -50.183,-75.325 -50.183,-121.091c0,-45.763 17.846,-88.788 50.183,-121.092c32.3,-32.333 75.325,-50.183 121.092,-50.183c45.763,-0 88.788,17.85 121.092,50.183c32.333,32.304 50.183,75.329 50.183,121.092c0,45.766 -17.85,88.791 -50.183,121.091c-32.304,32.338 -75.33,50.188 -121.092,50.188Z" style="fill:#57929a;fill-rule:nonzero;"/><path d="M1530.02,1497.16l-246.363,-246.4l48.438,-48.433l246.395,246.362l-48.47,48.471Z" style="fill:#57929a;fill-rule:nonzero;"/><path d="M3129.28,1026.18c-27.471,0 -53.266,10.688 -72.654,30.075c-40.079,40.08 -40.079,105.3 0,145.38c38.813,38.779 106.5,38.779 145.308,-0c40.08,-40.08 40.08,-105.3 0,-145.38c-19.387,-19.387 -45.179,-30.075 -72.654,-30.075Zm0,274.042c-45.762,0 -88.787,-17.812 -121.091,-50.15c-66.763,-66.796 -66.763,-175.454 -0,-242.25c66.762,-66.762 175.42,-66.762 242.183,0c66.762,66.796 66.762,175.417 -0,242.25c-32.338,32.338 -75.325,50.15 -121.092,50.15Z" style="fill:#57929a;fill-rule:nonzero;"/><path d="M2810.26,1496.44l-48.471,-48.438l246.396,-246.362l48.437,48.437l-246.362,246.363Z" style="fill:#57929a;fill-rule:nonzero;"/></svg>