<?xml version="1.0" encoding="UTF-8" standalone="no"?><!DOCTYPE svg PUBLIC "-//W3C//DTD SVG 1.1//EN" "http://www.w3.org/Graphics/SVG/1.1/DTD/svg11.dtd"><svg width="100%" height="100%" viewBox="0 0 1042 1042" version="1.1" xmlns="http://www.w3.org/2000/svg" xmlns:xlink="http://www.w3.org/1999/xlink" xml:space="preserve" xmlns:serif="http://www.serif.com/" style="fill-rule:evenodd;clip-rule:evenodd;stroke-linejoin:round;stroke-miterlimit:2;"><rect id="Intelligent-Built-Environment" serif:id="Intelligent Built Environment" x="0" y="0" width="1041.67" height="1041.67" style="fill:none;"/><path d="M512.612,772.614l-131.539,0c-4.547,0 -8.221,-3.675 -8.221,-8.221l-0,-361.733c-0,-2.697 1.323,-5.221 3.543,-6.758c2.203,-1.537 5.031,-1.899 7.572,-0.945l131.539,49.327c3.198,1.208 5.327,4.275 5.327,7.703l0,90.433l-16.442,0l-0,-84.736l-115.097,-43.161l0,341.649l123.318,-0l0,16.442Z" style="fill:#a6d08f;fill-rule:nonzero;"/><path d="M315.303,756.172l57.549,-0l-0,-176.436l-57.549,25.568l0,150.868Zm65.77,16.442l-73.991,0c-4.546,0 -8.221,-3.675 -8.221,-8.221l-0,-164.424c-0,-3.256 1.907,-6.191 4.883,-7.514l73.991,-32.885c2.54,-1.127 5.483,-0.888 7.818,0.616c2.335,1.521 3.741,4.111 3.741,6.898l0,197.309c0,4.546 -3.675,8.221 -8.221,8.221Z" style="fill:#a6d08f;fill-rule:nonzero;"/><path d="M479.727,756.172l82.212,-0l0,-189.088l-82.212,-0l0,189.088Zm90.434,16.442l-98.655,0c-4.546,0 -8.221,-3.675 -8.221,-8.221l-0,-205.53c-0,-4.547 3.675,-8.221 8.221,-8.221l98.655,-0c4.546,-0 8.221,3.674 8.221,8.221l-0,205.53c-0,4.546 -3.675,8.221 -8.221,8.221Z" style="fill:#a6d08f;fill-rule:nonzero;"/><path d="M668.815,583.526l-16.442,0l-0,-90.433l-90.434,0l0,65.77l-16.442,-0l-0,-73.991c-0,-4.546 3.675,-8.221 8.221,-8.221l106.876,-0c4.546,-0 8.221,3.675 8.221,8.221l0,98.654Z" style="fill:#a6d08f;fill-rule:nonzero;"/><rect x="553.718" y="756.172" width="106.876" height="16.442" style="fill:#a6d08f;fill-rule:nonzero;"/><rect x="339.967" y="624.632" width="41.106" height="16.442" style="fill:#a6d08f;fill-rule:nonzero;"/><rect x="339.967" y="673.96" width="41.106" height="16.442" style="fill:#a6d08f;fill-rule:nonzero;"/><rect x="504.391" y="599.969" width="32.885" height="16.442" style="fill:#a6d08f;fill-rule:nonzero;"/><rect x="504.391" y="641.075" width="32.885" height="16.442" style="fill:#a6d08f;fill-rule:nonzero;"/><rect x="504.391" y="682.181" width="32.885" height="16.442" style="fill:#a6d08f;fill-rule:nonzero;"/><path d="M578.382,756.172l156.203,-0l-0,-139.761l-156.203,0l-0,139.761Zm164.424,16.442l-172.645,0c-4.547,0 -8.222,-3.675 -8.222,-8.221l0,-156.203c0,-4.546 3.675,-8.221 8.222,-8.221l172.645,-0c4.546,-0 8.221,3.675 8.221,8.221l0,156.203c0,4.546 -3.675,8.221 -8.221,8.221Z" style="fill:#a6d08f;fill-rule:nonzero;"/><rect x="603.045" y="641.075" width="32.885" height="16.442" style="fill:#a6d08f;fill-rule:nonzero;"/><rect x="603.045" y="682.181" width="32.885" height="16.442" style="fill:#a6d08f;fill-rule:nonzero;"/><rect x="677.036" y="641.075" width="32.885" height="16.442" style="fill:#a6d08f;fill-rule:nonzero;"/><rect x="677.036" y="682.181" width="32.885" height="16.442" style="fill:#a6d08f;fill-rule:nonzero;"/><path d="M520.833,205.351c-13.597,-0 -24.663,11.066 -24.663,24.663c-0,13.598 11.066,24.664 24.663,24.664c13.598,0 24.664,-11.066 24.664,-24.664c-0,-13.597 -11.066,-24.663 -24.664,-24.663Zm0,65.769c-22.665,0 -41.106,-18.44 -41.106,-41.106c0,-22.665 18.441,-41.106 41.106,-41.106c22.666,0 41.106,18.441 41.106,41.106c0,22.666 -18.44,41.106 -41.106,41.106Z" style="fill:#a6d08f;fill-rule:nonzero;"/><rect x="512.612" y="262.899" width="16.442" height="106.876" style="fill:#a6d08f;fill-rule:nonzero;"/><path d="M783.912,476.651c-13.598,-0 -24.664,11.065 -24.664,24.663c0,13.598 11.066,24.664 24.664,24.664c13.598,-0 24.664,-11.066 24.664,-24.664c-0,-13.598 -11.066,-24.663 -24.664,-24.663Zm-0,65.769c-22.666,0 -41.106,-18.44 -41.106,-41.106c-0,-22.666 18.44,-41.106 41.106,-41.106c22.666,0 41.106,18.44 41.106,41.106c-0,22.666 -18.44,41.106 -41.106,41.106Z" style="fill:#a6d08f;fill-rule:nonzero;"/><rect x="701.7" y="493.093" width="49.327" height="16.442" style="fill:#a6d08f;fill-rule:nonzero;"/><path d="M257.755,476.651c-13.598,-0 -24.664,11.065 -24.664,24.663c0,13.598 11.066,24.664 24.664,24.664c13.598,-0 24.663,-11.066 24.663,-24.664c0,-13.598 -11.065,-24.663 -24.663,-24.663Zm-0,65.769c-22.666,0 -41.106,-18.44 -41.106,-41.106c-0,-22.666 18.44,-41.106 41.106,-41.106c22.665,0 41.106,18.44 41.106,41.106c-0,22.666 -18.441,41.106 -41.106,41.106Z" style="fill:#a6d08f;fill-rule:nonzero;"/><rect x="290.64" y="493.093" width="49.327" height="16.442" style="fill:#a6d08f;fill-rule:nonzero;"/><path d="M290.64,246.457c-6.594,-0 -12.784,2.573 -17.438,7.226c-4.653,4.654 -7.226,10.844 -7.226,17.437c-0,6.594 2.573,12.784 7.226,17.438c9.315,9.314 25.56,9.314 34.875,-0c4.661,-4.654 7.226,-10.844 7.226,-17.438c0,-6.593 -2.565,-12.783 -7.226,-17.437c-4.654,-4.653 -10.844,-7.226 -17.437,-7.226Zm-0,65.77c-10.984,-0 -21.302,-4.284 -29.062,-12.045c-7.761,-7.76 -12.044,-18.078 -12.044,-29.062c-0,-10.983 4.283,-21.309 12.044,-29.062c7.752,-7.76 18.078,-12.044 29.062,-12.044c10.983,0 21.309,4.284 29.062,12.044c7.76,7.753 12.044,18.079 12.044,29.062c-0,10.984 -4.284,21.31 -12.044,29.062c-7.753,7.761 -18.079,12.045 -29.062,12.045Z" style="fill:#a6d08f;fill-rule:nonzero;"/><path d="M367.204,359.318l-59.127,-59.136l11.625,-11.624l59.135,59.127l-11.633,11.633Z" style="fill:#a6d08f;fill-rule:nonzero;"/><path d="M751.027,246.284c-6.593,0 -12.784,2.565 -17.437,7.218c-9.619,9.619 -9.619,25.272 -0,34.891c9.315,9.307 25.56,9.307 34.874,0c9.619,-9.619 9.619,-25.272 0,-34.891c-4.653,-4.653 -10.843,-7.218 -17.437,-7.218Zm0,65.77c-10.983,-0 -21.309,-4.275 -29.062,-12.036c-16.023,-16.031 -16.023,-42.109 0,-58.14c16.023,-16.023 42.101,-16.023 58.124,-0c16.023,16.031 16.023,42.1 0,58.14c-7.761,7.761 -18.078,12.036 -29.062,12.036Z" style="fill:#a6d08f;fill-rule:nonzero;"/><path d="M674.463,359.145l-11.633,-11.625l59.135,-59.127l11.625,11.625l-59.127,59.127Z" style="fill:#a6d08f;fill-rule:nonzero;"/></svg>